<svg width="512" height="512" viewBox="0 0 512 512" fill="none" xmlns="http://www.w3.org/2000/svg"><rect width="512" height="512" rx="128" fill="#081426"/><circle cx="256" cy="256" r="148" fill="url(#g1)" fill-opacity="0.18"/><path d="M258 90C222 148 183 195 138 233C168 233 190 244 206 266C222 288 231 318 233 355C260 309 294 270 334 240C311 238 292 228 277 210C262 192 255 165 258 90Z" fill="url(#g2)"/><circle cx="367" cy="150" r="18" fill="#42D6FF"/><circle cx="392" cy="214" r="10" fill="#00F0C9"/><circle cx="120" cy="316" r="13" fill="#7A7CFF"/><path d="M352 165L286 207" stroke="#42D6FF" stroke-width="6" stroke-linecap="round"/><path d="M382 208L315 225" stroke="#00F0C9" stroke-width="6" stroke-linecap="round"/><path d="M132 309L207 286" stroke="#7A7CFF" stroke-width="6" stroke-linecap="round"/><defs><linearGradient id="g1" x1="108" y1="108" x2="404" y2="404" gradientUnits="userSpaceOnUse"><stop stop-color="#42D6FF"/><stop offset="1" stop-color="#7A7CFF"/></linearGradient><linearGradient id="g2" x1="138" y1="90" x2="334" y2="355" gradientUnits="userSpaceOnUse"><stop stop-color="#42D6FF"/><stop offset="0.5" stop-color="#00F0C9"/><stop offset="1" stop-color="#7A7CFF"/></linearGradient></defs></svg>