<svg width="900" height="1100" viewBox="0 0 900 1100" fill="none" xmlns="http://www.w3.org/2000/svg"><rect width="900" height="1100" rx="48" fill="#081426"/><rect x="36" y="36" width="828" height="1028" rx="36" fill="url(#bg)" fill-opacity="0.18" stroke="#345A86"/><circle cx="450" cy="400" r="150" fill="url(#g1)" fill-opacity="0.18"/><circle cx="450" cy="340" r="92" fill="url(#g2)"/><path d="M286 742C309 620 389 556 450 556C511 556 591 620 614 742V806H286V742Z" fill="url(#g3)"/><rect x="210" y="850" width="480" height="100" rx="26" fill="#0F2441" stroke="#214675"/><text x="450" y="905" text-anchor="middle" fill="#EAF4FF" font-family="Arial, sans-serif" font-size="56" font-weight="700">KEVIN VITERI</text><text x="450" y="962" text-anchor="middle" fill="#9CB6D8" font-family="Arial, sans-serif" font-size="28">Project • Transformation • AI</text><circle cx="170" cy="162" r="16" fill="#42D6FF"/><circle cx="738" cy="218" r="11" fill="#00F0C9"/><circle cx="720" cy="822" r="15" fill="#7A7CFF"/><path d="M170 162L288 264" stroke="#42D6FF" stroke-width="6" stroke-linecap="round"/><path d="M738 218L586 314" stroke="#00F0C9" stroke-width="6" stroke-linecap="round"/><path d="M720 822L618 764" stroke="#7A7CFF" stroke-width="6" stroke-linecap="round"/><defs><linearGradient id="bg" x1="36" y1="36" x2="864" y2="1064" gradientUnits="userSpaceOnUse"><stop stop-color="#42D6FF"/><stop offset="1" stop-color="#7A7CFF"/></linearGradient><linearGradient id="g1" x1="300" y1="250" x2="600" y2="550" gradientUnits="userSpaceOnUse"><stop stop-color="#42D6FF"/><stop offset="1" stop-color="#7A7CFF"/></linearGradient><linearGradient id="g2" x1="358" y1="248" x2="542" y2="432" gradientUnits="userSpaceOnUse"><stop stop-color="#42D6FF"/><stop offset="1" stop-color="#00F0C9"/></linearGradient><linearGradient id="g3" x1="286" y1="556" x2="614" y2="806" gradientUnits="userSpaceOnUse"><stop stop-color="#0F2441"/><stop offset="1" stop-color="#173660"/></linearGradient></defs></svg>